<?xml version="1.0" encoding="UTF-8" standalone="no"?>
<!-- Created with Inkscape (http://www.inkscape.org/) -->

<svg
   xmlns:dc="http://purl.org/dc/elements/1.1/"
   xmlns:cc="http://creativecommons.org/ns#"
   xmlns:rdf="http://www.w3.org/1999/02/22-rdf-syntax-ns#"
   xmlns:svg="http://www.w3.org/2000/svg"
   xmlns="http://www.w3.org/2000/svg"
   xmlns:sodipodi="http://sodipodi.sourceforge.net/DTD/sodipodi-0.dtd"
   xmlns:inkscape="http://www.inkscape.org/namespaces/inkscape"
   width="150mm"
   height="150mm"
   viewBox="0 0 531.49607 531.49607"
   id="svg2"
   version="1.1"
   inkscape:version="0.91 r13725"
   sodipodi:docname="logo.svg">
  <metadata
     id="metadata7">
    <rdf:RDF>
      <cc:Work
         rdf:about="">
        <dc:format>image/svg+xml</dc:format>
        <dc:type
           rdf:resource="http://purl.org/dc/dcmitype/StillImage" />
        <dc:title></dc:title>
      </cc:Work>
    </rdf:RDF>
  </metadata>
  <defs
     id="defs5" />
  <sodipodi:namedview
     pagecolor="#ffffff"
     bordercolor="#666666"
     borderopacity="1"
     objecttolerance="10"
     gridtolerance="10"
     guidetolerance="10"
     inkscape:pageopacity="0"
     inkscape:pageshadow="2"
     inkscape:window-width="640"
     inkscape:window-height="480"
     id="namedview3"
     showgrid="false"
     inkscape:zoom="0.44402963"
     inkscape:cx="265.74803"
     inkscape:cy="265.74803"
     inkscape:window-x="845"
     inkscape:window-y="337"
     inkscape:window-maximized="0"
     inkscape:current-layer="svg2" />
  <g
     id="layer2-3"
     transform="matrix(0.10000001,0,0,0.10000001,37.878836,5.9925917)"
     style="fill:#56ab29;stroke:none">
    <path
       d="M 1557,5180 C 1355,5155 1134,5039 947,4861 861,4779 702,4601 605,4480 462,4300 314,4044 211,3797 151,3651 73,3404 45,3266 -8,3013 -10,2702 40,2472 c 74,-348 257,-660 510,-874 157,-132 298,-203 486,-244 109,-23 365,-24 494,0 256,45 530,150 792,303 l 67,39 124,-61 c 210,-104 411,-161 604,-172 197,-11 359,30 589,147 322,164 478,314 623,598 141,277 189,527 178,917 -6,217 -21,329 -67,500 -77,290 -201,515 -469,850 -228,285 -435,476 -610,564 -102,52 -167,65 -288,59 -83,-5 -116,-12 -213,-48 -227,-83 -263,-93 -350,-98 -118,-6 -181,12 -374,108 -89,44 -195,88 -236,99 -88,23 -247,33 -343,21 z"
       id="path12"
       inkscape:connector-curvature="0" />
    <path
       d="m 2330,1558 c -24,-96 -85,-269 -130,-371 -120,-269 -384,-651 -649,-940 -57,-63 -81,-97 -81,-114 0,-32 87,-123 118,-123 46,0 286,283 419,494 85,134 228,422 288,576 26,69 51,129 55,133 4,4 10,-29 14,-75 51,-611 465,-986 1093,-992 83,0 154,2 158,6 11,11 -97,207 -199,363 -132,201 -238,329 -410,500 -173,172 -286,257 -463,346 l -122,62 6,73 6,73 -38,15 c -52,22 -53,21 -65,-26 z"
       id="path14"
       inkscape:connector-curvature="0" />
  </g>
  <text
     xml:space="preserve"
     style="font-style:normal;font-weight:normal;font-size:40px;line-height:200%;font-family:sans-serif;letter-spacing:0px;word-spacing:0px;fill:#000000;fill-opacity:1;stroke:none;stroke-width:1px;stroke-linecap:butt;stroke-linejoin:miter;stroke-opacity:1"
     x="262.42493"
     y="383.35236"
     id="text3453"
     sodipodi:linespacing="200%"><tspan
       sodipodi:role="line"
       id="tspan3455"
       x="262.42493"
       y="383.35236"
       style="font-style:normal;font-variant:normal;font-weight:500;font-stretch:condensed;font-size:47.5px;line-height:200%;font-family:'Helvetica Neue LT Std';-inkscape-font-specification:'Helvetica Neue LT Std Medium Condensed';text-align:center;word-spacing:0.86000001px;text-anchor:middle;fill:#ffffff">centro de belleza</tspan></text>
  <text
     xml:space="preserve"
     style="font-style:normal;font-weight:normal;font-size:40px;line-height:119.00000572%;font-family:sans-serif;letter-spacing:0px;word-spacing:0px;fill:#000000;fill-opacity:1;stroke:none;stroke-width:1px;stroke-linecap:butt;stroke-linejoin:miter;stroke-opacity:1"
     x="263.18311"
     y="333.25092"
     id="text3439"
     sodipodi:linespacing="119.00001%"><tspan
       sodipodi:role="line"
       id="tspan3441"
       x="263.18311"
       y="333.25092"
       style="font-style:normal;font-variant:normal;font-weight:bold;font-stretch:normal;font-size:103.75px;line-height:119.00000572%;font-family:'Helvetica Neue LT Std';-inkscape-font-specification:'Helvetica Neue LT Std Bold';text-align:center;text-anchor:middle;fill:#ffffff">in&amp;out</tspan><tspan
       sodipodi:role="line"
       x="263.18311"
       y="456.71341"
       style="font-style:normal;font-variant:normal;font-weight:bold;font-stretch:normal;font-size:103.75px;line-height:119.00000572%;font-family:'Helvetica Neue LT Std';-inkscape-font-specification:'Helvetica Neue LT Std Bold';text-align:center;text-anchor:middle;fill:#ffffff"
       id="tspan3451" /></text>
</svg>
