<!DOCTYPE svg PUBLIC "-//W3C//DTD SVG 20010904//EN" "http://www.w3.org/TR/2001/REC-SVG-20010904/DTD/svg10.dtd">
<svg version="1.0" xmlns="http://www.w3.org/2000/svg" width="451px" height="519px" viewBox="0 0 4510 5190" preserveAspectRatio="xMidYMid meet">
<g id="layer1" fill="#fefffe" fill-opacity="0" stroke="none">
 <path d="M1 4068 c1 -618 5 -1080 9 -1028 35 438 291 1059 595 1440 97 121 256 299 342 381 187 179 411 295 610 318 38 5 -286 9 -744 10 l-813 1 1 -1122z"/>
 <path d="M1795 5180 c97 -11 204 -49 364 -130 166 -85 235 -104 351 -98 87 5 123 15 350 98 97 36 130 43 213 48 121 6 186 -7 288 -59 108 -54 226 -146 359 -279 128 -127 351 -401 454 -555 192 -288 296 -585 330 -945 1 -19 4 407 4 948 l2 982 -1392 -1 c-766 -1 -1361 -5 -1323 -9z"/>
 <path d="M4497 2773 c-28 -330 -198 -701 -421 -917 -177 -171 -531 -348 -769 -386 -217 -35 -515 27 -794 165 l-124 61 -67 -39 c-262 -153 -536 -258 -792 -303 -129 -24 -385 -23 -494 0 -188 41 -329 112 -486 244 -301 254 -505 656 -540 1067 -4 50 -8 -530 -9 -1287 l-1 -1378 2255 0 2255 0 0 1425 c0 784 -2 1425 -4 1425 -1 0 -6 -35 -9 -77z m-2102 -1189 l38 -15 -6 -73 -6 -73 122 -62 c177 -89 290 -174 463 -346 172 -171 278 -299 410 -500 102 -156 210 -352 199 -363 -4 -4 -75 -6 -158 -6 -242 2 -434 52 -619 162 -271 160 -443 461 -474 830 -4 46 -10 79 -14 75 -4 -4 -29 -64 -55 -133 -60 -154 -203 -442 -288 -576 -133 -211 -373 -494 -419 -494 -31 0 -118 91 -118 123 0 17 24 51 81 114 265 289 529 671 649 940 45 102 106 275 130 371 12 47 13 48 65 26z"/>
 </g>
<g id="layer2" fill="#56ab29" stroke="none">
 <path d="M1557 5180 c-202 -25 -423 -141 -610 -319 -86 -82 -245 -260 -342 -381 -143 -180 -291 -436 -394 -683 -60 -146 -138 -393 -166 -531 -53 -253 -55 -564 -5 -794 74 -348 257 -660 510 -874 157 -132 298 -203 486 -244 109 -23 365 -24 494 0 256 45 530 150 792 303 l67 39 124 -61 c210 -104 411 -161 604 -172 197 -11 359 30 589 147 322 164 478 314 623 598 141 277 189 527 178 917 -6 217 -21 329 -67 500 -77 290 -201 515 -469 850 -228 285 -435 476 -610 564 -102 52 -167 65 -288 59 -83 -5 -116 -12 -213 -48 -227 -83 -263 -93 -350 -98 -118 -6 -181 12 -374 108 -89 44 -195 88 -236 99 -88 23 -247 33 -343 21z"/>
 <path d="M2330 1558 c-24 -96 -85 -269 -130 -371 -120 -269 -384 -651 -649 -940 -57 -63 -81 -97 -81 -114 0 -32 87 -123 118 -123 46 0 286 283 419 494 85 134 228 422 288 576 26 69 51 129 55 133 4 4 10 -29 14 -75 51 -611 465 -986 1093 -992 83 0 154 2 158 6 11 11 -97 207 -199 363 -132 201 -238 329 -410 500 -173 172 -286 257 -463 346 l-122 62 6 73 6 73 -38 15 c-52 22 -53 21 -65 -26z"/>
 </g>

</svg>